<?xml version="1.0" standalone="no"?>
<!DOCTYPE svg PUBLIC "-//W3C//DTD SVG 20010904//EN"
 "http://www.w3.org/TR/2001/REC-SVG-20010904/DTD/svg10.dtd">
<svg version="1.0" xmlns="http://www.w3.org/2000/svg"
 width="999.000000pt" height="999.000000pt" viewBox="0 0 999.000000 999.000000"
 preserveAspectRatio="xMidYMid meet">

<g transform="translate(0.000000,999.000000) scale(0.100000,-0.100000)"
fill="#000000" stroke="none">
<path d="M4676 9213 c-38 -285 -109 -481 -236 -653 -74 -99 -151 -167 -369
-324 -148 -107 -281 -185 -611 -361 -413 -218 -601 -349 -876 -606 -530 -496
-891 -1039 -1116 -1674 -308 -872 -285 -1863 62 -2680 295 -694 772 -1258
1428 -1686 135 -88 411 -235 573 -305 299 -129 666 -228 1039 -281 178 -25
736 -25 931 0 587 74 1080 244 1569 539 395 239 755 577 1046 984 289 405 501
934 583 1459 129 822 5 1668 -353 2410 -129 268 -279 511 -469 763 -212 282
-559 624 -850 839 -183 135 -407 260 -732 408 -432 197 -633 307 -790 433
-155 125 -410 392 -704 740 -56 67 -104 122 -106 122 -1 0 -10 -57 -19 -127z
m-111 -4963 c132 -28 253 -69 387 -131 220 -102 313 -161 883 -549 379 -259
519 -286 800 -156 120 56 239 129 553 340 383 257 541 345 678 380 162 42 313
-1 434 -123 105 -106 157 -238 181 -460 30 -275 -51 -673 -197 -964 -162 -322
-351 -489 -570 -504 -63 -5 -79 -2 -129 21 -107 49 -189 119 -505 431 -381
377 -489 462 -634 499 -147 39 -351 -38 -781 -294 -497 -296 -631 -370 -861
-478 -395 -186 -726 -263 -1009 -233 -313 33 -586 170 -742 373 -301 391 -212
1046 200 1467 218 224 480 353 812 401 105 15 388 4 500 -20z m1795 -1795
c144 -22 186 -39 250 -105 93 -96 149 -205 150 -293 0 -56 -20 -97 -60 -121
-59 -34 -76 -22 -135 92 -45 86 -104 142 -184 174 -45 17 -82 23 -190 26 -241
7 -327 -28 -566 -228 -122 -103 -166 -120 -204 -78 -58 61 -24 155 95 267 132
123 283 218 390 246 143 36 302 44 454 20z m576 -900 c20 -31 20 -94 -1 -134
-23 -46 -127 -124 -242 -181 -451 -226 -1163 -288 -1658 -144 -162 47 -329
137 -400 215 -35 39 -37 45 -33 91 10 101 125 170 197 119 73 -52 290 -141
426 -175 395 -99 934 -74 1307 60 85 31 224 100 288 143 56 38 94 40 116 6z"/>
</g>
</svg>
